<?xml version="1.0" encoding="utf-8"?>
<!-- Generator: Adobe Illustrator 19.2.1, SVG Export Plug-In . SVG Version: 6.00 Build 0)  -->
<svg version="1.1" id="Layer_1" xmlns="http://www.w3.org/2000/svg" xmlns:xlink="http://www.w3.org/1999/xlink" x="0px" y="0px"
	 viewBox="0 0 600 135" style="enable-background:new 0 0 600 135;" xml:space="preserve">
<style type="text/css">
	.st0{fill:#63498B;}
</style>
<g>
	<path class="st0" d="M135.6,124.9c0-39,0-77.9,0-116.9c0.4-4.4-3.6-8.3-8-8C89,0,50.4,0.1,11.8,0C9.9,0,8,0,6.1,0.7
		c-3.1,1-5.6,4-5.4,7.4c-0.1,39,0,77.9,0,116.9c-0.2,5.3,4.7,10.5,10.1,10.1c38.6,0,77.2,0,115.8,0C132,135.5,136,129.9,135.6,124.9
		z M129.9,129.2c-1.5,1.9-4.3,1.6-6.4,1.7c-36.9-0.1-73.7,0-110.6,0c-3.1,0.3-6.5-1.3-7.6-4.4c-0.9-3.2-0.5-6.5-0.5-9.8
		c0-35.2,0-70.4,0-105.5C4.6,8.6,5.1,5.3,8.1,4.6c3.2-0.8,6.5-0.5,9.8-0.6c36.2,0.1,72.5,0,108.7,0c3.5-0.5,5.2,2.9,4.9,5.9
		c0.1,37.3,0,74.5,0,111.8C131.5,124.3,131.6,127.2,129.9,129.2z"/>
	<path class="st0" d="M79.7,65.2c3.2-1,6.6-2,9-4.6c4.8-5.2,5.2-13.2,2.9-19.6c-2.5-6.9-10.2-9.7-16.8-10.6
		C63.6,29,52.4,30,41.3,29.7c0,24.9,0,49.9,0,74.8c9.8,0,19.6,0,29.5,0c7.6-0.2,15.8-2.6,20.5-8.9c4.5-6.1,5-14.8,2-21.6
		C90.8,68.6,85,66.2,79.7,65.2z M74.7,41.7c7.3,2.6,7,15.2-0.4,17.5c-6.6,2.1-13.7,1.2-20.6,1.4c0-6.8,0-13.7,0-20.5
		C60.6,40.3,67.9,39.3,74.7,41.7z M80.6,88.1c-1.9,3.9-6.4,5.4-10.5,5.8c-5.5,0.5-10.9,0.1-16.4,0.2c0-7.8,0-15.6,0-23.3
		c7.5,0.4,15.4-1.2,22.5,1.7C82.1,74.9,83.2,82.8,80.6,88.1z"/>
</g>
<g>
	<path class="st0" d="M194.8,64.4c2.9-0.9,6-1.8,8.1-4.1c4.6-4.9,5-12.7,2.3-18.6c-2.8-5.7-9.4-7.8-15.3-8.6
		c-9.7-1.1-19.5-0.4-29.2-0.6c0,22.4,0,44.9,0,67.3c8.3,0,16.5,0,24.8,0c6.2-0.1,12.8-1.4,17.5-5.6c6.1-5.2,7.1-14.7,4.1-21.8
		C204.9,67.6,199.6,65.6,194.8,64.4z M190.7,43.3c6.8,2.5,6.3,14.1-0.7,16c-5.9,1.8-12.2,0.8-18.3,1c0-6.2,0-12.3,0-18.5
		C178,42,184.6,41,190.7,43.3z M191.4,89.3c-6.3,2.3-13.2,1-19.8,1.3c0-7.1,0-14.2,0-21.3c6.6,0.3,13.5-0.9,19.8,1.4
		C199.4,73.4,199.1,86.5,191.4,89.3z"/>
	<path class="st0" d="M352.3,91c-2.4-1.2-3.3-4.1-3.2-6.6c-0.1-9.1,0-18.2,0-27.3c4.8,0,9.6,0,14.4,0c0-2.7,0-5.5,0-8.2
		c-4.8,0-9.6,0-14.4,0c0-3.8,0-7.6,0-11.4c-2.2,0-4.5,0-6.7,0c-1.2,3.6-2.4,7.2-3.6,10.8c-2.4,1.4-4.9,2.6-7.3,3.9
		c0,1.6-0.1,3.3-0.1,4.9c2.3,0,4.6,0,6.8,0c0,9.5-0.1,19,0,28.5c0,5,1.8,10.5,6.4,13.1c6,3.2,13.1,2.1,19.4,0.4
		c0.1-2.7,0.1-5.5,0.1-8.2C360.3,91.5,356,93,352.3,91z"/>
	<path class="st0" d="M435.2,90.9c-2.6-1.5-3-4.8-3-7.5c0-8.7,0-17.5,0-26.2c4.8,0,9.6,0,14.5,0c0-2.7,0-5.5,0-8.2
		c-4.8,0-9.6,0-14.4,0c0-3.8,0-7.6,0-11.4c-2.2,0-4.5,0-6.7,0c-1.2,3.6-2.5,7.3-3.7,10.9c-2.4,1.3-4.8,2.6-7.2,3.8
		c0,1.6-0.1,3.3-0.1,4.9c2.3,0,4.6,0,6.8,0c0,9.5-0.1,18.9,0,28.4c0,5.2,2,11,7,13.5c6,2.8,12.9,1.9,19,0c-0.1-2.7-0.1-5.4-0.1-8
		C443.3,91.5,438.8,93.1,435.2,90.9z"/>
	<path class="st0" d="M258.3,53c-6.4-5.2-15.4-5.9-23.2-3.9c-6.1,1.6-11.4,6.1-13.8,12c-3.1,7.6-3.2,16.3-0.7,24.1
		c2.4,7.4,8.7,13.4,16.4,14.9c7.9,1.5,17.1,0.3,23-5.7c5.6-5.4,7.3-13.5,7.1-21C266.9,65.8,264.3,57.9,258.3,53z M251.8,88.5
		c-4.5,4.6-12.8,4.7-17.5,0.4c-4.1-4.4-4.5-10.8-4.4-16.5c0.3-5.5,1.7-12.2,7.3-14.6c4.8-1.8,11.1-1.4,14.7,2.6
		c3.3,3.8,3.9,9.2,3.9,14.1C255.8,79.4,255.2,84.7,251.8,88.5z"/>
	<path class="st0" d="M316.1,53c-6.4-5.2-15.5-5.9-23.2-3.9c-5.9,1.5-11,5.7-13.5,11.3c-3.4,7.5-3.6,16.2-1.4,24
		c2.1,7.5,8.2,13.7,15.9,15.5c8.4,1.9,18.3,0.5,24.3-6.1c5.4-5.7,6.8-14,6.5-21.5C324.5,65.1,321.8,57.7,316.1,53z M311.1,86.6
		c-4.3,7.6-17.5,7.3-21.1-0.8c-2.6-5.5-2.6-11.9-1.6-17.8c0.7-4.1,2.7-8.4,6.7-10.1c4.8-1.8,11.1-1.4,14.7,2.6
		c3.1,3.5,3.7,8.5,3.9,13C313.7,77.9,313.3,82.6,311.1,86.6z"/>
	<path class="st0" d="M383.8,64.9c-2.5-1.7-2.4-6.2,0.7-7.4c6.6-2.5,13.7,0.1,20,2.3c1.1-2.7,2.3-5.5,3.4-8.2
		c-9.4-3.8-20.6-5.4-30-0.7c-7.3,3.4-8.6,14.2-3.2,19.8c5.9,5.9,14.8,6.6,21.3,11.5c3.4,2.2,2.6,8.1-1.4,9.3
		c-7.7,2.6-15.9-0.1-23.1-3c0,3.1,0,6.2,0,9.4c7.6,2.9,16.1,3.6,24.1,2.1c5.2-1,10.5-4.1,12.3-9.3c1.5-4.8,1.2-10.8-2.6-14.5
		C399.3,70.4,390.3,69.8,383.8,64.9z"/>
	<path class="st0" d="M476,49.9c-3.8,1.8-6.3,5.2-8.6,8.5c-0.5-3.2-1-6.3-1.5-9.4c-2.8,0-5.7,0-8.5-0.1c-0.1,17,0,34-0.1,51
		c3.6,0,7.3,0,10.9,0c0-8.8,0-17.6,0-26.5c-0.1-5.2,2.2-10.7,6.9-13.4c3.7-2.3,8.3-1.8,12.4-1.6c0.4-3.4,0.7-6.7,1.1-10.1
		C484.3,48,479.8,47.7,476,49.9z"/>
	<path class="st0" d="M525.5,48.8c-8.7-1.8-17.7,0-25.7,3.6c1.2,2.6,2.4,5.1,3.5,7.7c6.1-2.5,13.2-5.5,19.8-2.7
		c4.3,2,4,7.4,4.4,11.4c-8.8,0.6-18.3-0.3-26.3,4.3c-9.6,5.5-8.5,22.4,1.9,26.3c4.8,1.9,10.3,1.6,15.2,0.4c3.9-1,6.6-4.2,9.5-6.8
		c1,2.2,1.7,4.6,2.4,7c2.6,0,5.1,0,7.7,0c0-11,0-22,0-33c0-4.1-0.4-8.4-2.6-11.9C533.2,51.6,529.3,49.6,525.5,48.8z M524.8,87.8
		c-3.6,4.7-10.8,6.1-16,3.5c-4.5-2.9-3.6-10.7,1-13.1c5.3-2.8,11.5-2.1,17.3-2.6C527,79.7,527.6,84.4,524.8,87.8z"/>
	<path class="st0" d="M592.7,53.4c-7.9-8.1-22.8-6.8-29.2,2.6c-0.6-2.4-1.1-4.7-1.6-7.1c-3,0-5.9,0-8.9,0c0,24.5,0,49.1,0,73.6
		c3.6,0,7.3,0,10.9,0c-0.2-9.7,0.4-19.4-0.6-29c6.2,7.5,17.8,9.5,26.1,4.4c6.6-4.3,9.4-12.5,9.9-20.1
		C599.7,69.4,598.7,59.9,592.7,53.4z M585.2,87.3c-4.1,7-16.5,6.1-19.5-1.4c-2.2-5.6-2.2-11.9-1.6-17.8c0.4-4.2,2.4-8.8,6.7-10.2
		c4.1-1.5,9.2-1.4,12.7,1.5c3.3,3,4.3,7.7,4.6,12C588.3,76.7,588.2,82.5,585.2,87.3z"/>
</g>
</svg>
