<?xml version="1.0" encoding="UTF-8" ?>
<!DOCTYPE svg PUBLIC "-//W3C//DTD SVG 1.1//EN" "http://www.w3.org/Graphics/SVG/1.1/DTD/svg11.dtd">
<svg width="1200pt" height="630pt" viewBox="0 0 1200 630" version="1.1" xmlns="http://www.w3.org/2000/svg">
<g id="#ffffffff">
<path fill="#ffffff" opacity="1.00" d=" M 0.00 0.00 L 1200.00 0.00 L 1200.00 630.00 L 0.00 630.00 L 0.00 0.00 M 187.98 211.99 C 186.76 213.35 184.90 214.48 184.78 216.48 C 176.53 274.32 168.26 332.16 160.00 389.99 C 201.66 431.67 243.33 473.33 285.00 514.99 C 335.00 481.67 385.01 448.35 435.00 415.00 C 401.68 381.66 368.33 348.34 335.01 315.00 C 360.00 289.99 385.01 265.01 409.99 240.00 C 368.34 198.33 326.67 156.66 285.00 115.01 C 252.65 147.32 220.35 179.70 187.98 211.99 M 903.08 274.04 C 900.49 275.91 899.94 279.23 899.01 282.07 C 889.23 314.10 879.38 346.10 869.58 378.11 C 868.60 380.43 869.31 383.20 871.20 384.83 C 874.61 387.86 879.39 389.29 883.92 388.78 C 886.17 388.57 888.53 387.26 889.12 384.93 C 891.34 377.83 893.21 370.61 895.32 363.48 C 907.51 363.46 919.71 363.50 931.91 363.45 C 934.10 370.55 935.90 377.78 938.14 384.86 C 938.68 387.02 940.73 388.41 942.86 388.70 C 947.70 389.46 952.86 387.74 956.39 384.36 C 958.12 382.75 958.57 380.15 957.67 377.99 C 947.43 344.70 937.29 311.38 927.00 278.10 C 925.95 274.30 922.05 272.45 918.52 271.63 C 913.34 270.49 907.53 271.01 903.08 274.04 M 503.02 278.90 C 502.96 312.93 503.03 346.96 502.99 380.98 C 502.83 383.14 503.39 385.50 505.32 386.75 C 508.36 389.14 512.40 388.90 516.05 388.93 C 527.05 388.83 538.05 389.07 549.04 388.81 C 559.05 388.42 569.65 383.64 574.21 374.28 C 578.77 364.65 578.60 353.49 577.25 343.15 C 576.06 334.76 569.28 328.43 561.61 325.60 C 565.19 323.76 568.59 321.34 570.74 317.87 C 575.03 311.10 575.61 302.68 574.83 294.90 C 574.10 287.51 570.24 280.18 563.60 276.51 C 554.34 271.14 543.27 272.02 532.99 271.96 C 525.61 272.06 518.21 271.76 510.84 272.11 C 507.19 272.33 502.67 274.64 503.02 278.90 M 598.45 272.52 C 595.67 273.11 592.42 274.87 592.50 278.13 C 592.37 300.09 592.48 322.05 592.44 344.02 C 592.49 352.05 591.98 360.30 594.52 368.05 C 596.33 373.97 600.05 379.31 605.20 382.79 C 614.20 389.13 625.73 390.50 636.47 389.61 C 645.90 388.81 655.58 385.22 661.84 377.84 C 667.39 371.24 669.12 362.33 669.21 353.91 C 669.28 329.30 669.20 304.68 669.25 280.06 C 669.32 277.88 669.06 275.30 666.99 274.08 C 662.37 271.40 656.37 271.38 651.56 273.57 C 649.45 274.44 648.29 276.69 648.45 278.92 C 648.41 303.60 648.48 328.29 648.43 352.97 C 648.38 357.93 647.54 363.32 643.96 367.04 C 640.16 370.96 634.34 371.84 629.11 371.55 C 624.58 371.35 619.78 369.81 616.92 366.11 C 613.77 362.17 613.25 356.92 613.24 352.06 C 613.24 328.03 613.22 304.01 613.25 279.99 C 613.31 277.85 613.05 275.33 611.04 274.11 C 607.31 271.83 602.63 271.61 598.45 272.52 M 690.79 273.74 C 688.82 274.64 687.83 276.80 687.98 278.90 C 687.96 313.30 687.94 347.71 687.99 382.11 C 687.74 386.81 693.09 388.88 697.01 388.86 C 712.99 389.01 728.98 388.85 744.97 388.94 C 747.13 388.85 749.74 389.24 751.37 387.44 C 754.57 383.65 754.74 377.81 752.40 373.55 C 751.55 371.94 749.88 370.71 748.02 370.74 C 734.92 370.54 721.81 370.84 708.71 370.60 C 708.83 340.38 708.71 310.15 708.77 279.93 C 708.91 277.64 708.40 274.98 706.15 273.86 C 701.47 271.40 695.51 271.38 690.79 273.74 M 768.40 274.52 C 765.97 276.58 765.38 279.91 765.40 282.93 C 765.39 315.63 765.41 348.32 765.39 381.02 C 765.28 383.03 765.72 385.27 767.50 386.49 C 772.01 389.51 778.24 389.59 783.02 387.13 C 784.99 386.21 786.34 384.15 786.17 381.95 C 786.24 358.74 786.16 335.52 786.21 312.30 C 792.44 323.87 798.49 335.53 804.78 347.06 C 806.74 350.98 812.12 352.05 815.74 349.85 C 817.41 348.83 818.36 347.04 819.34 345.41 C 825.28 334.76 831.29 324.16 837.25 313.52 C 837.23 336.01 837.25 358.49 837.23 380.98 C 837.10 383.04 837.58 385.35 839.43 386.56 C 843.98 389.53 850.19 389.57 854.96 387.08 C 856.82 386.16 858.15 384.19 858.01 382.07 C 858.08 349.04 858.02 316.01 858.03 282.98 C 858.08 279.83 857.40 276.33 854.77 274.30 C 850.92 271.23 845.47 271.63 841.00 272.89 C 835.51 274.73 832.91 280.40 830.20 285.04 C 824.02 296.31 817.82 307.57 811.65 318.84 C 804.95 306.72 798.34 294.55 791.62 282.44 C 789.23 278.41 786.47 273.77 781.56 272.63 C 777.20 271.63 771.98 271.39 768.40 274.52 Z" />
<path fill="#ffffff" opacity="1.00" d=" M 523.65 290.19 C 529.77 290.24 535.89 290.11 542.01 290.24 C 545.84 290.29 549.78 291.89 551.98 295.15 C 554.80 299.33 554.86 304.88 553.44 309.58 C 552.06 314.08 547.66 317.23 542.99 317.30 C 536.54 317.55 530.09 317.33 523.64 317.40 C 523.63 308.33 523.62 299.26 523.65 290.19 Z" />
<path fill="#ffffff" opacity="1.00" d=" M 913.49 298.10 C 918.33 314.40 922.80 330.81 927.47 347.16 C 918.19 347.16 908.92 347.16 899.65 347.15 C 904.23 330.79 908.96 314.47 913.49 298.10 Z" />
<path fill="#ffffff" opacity="1.00" d=" M 523.64 333.72 C 530.06 333.77 536.48 333.62 542.90 333.79 C 547.34 333.90 552.17 335.51 554.62 339.46 C 557.31 343.78 557.29 349.10 557.21 354.02 C 557.07 358.76 556.06 363.99 552.32 367.27 C 549.27 370.02 544.99 370.67 541.02 370.68 C 535.22 370.70 529.42 370.69 523.63 370.67 C 523.64 358.35 523.62 346.04 523.64 333.72 Z" />
</g>
<g id="#00d1b2ff">
<path fill="#00d1b2" opacity="1.00" d=" M 187.98 211.99 C 220.35 179.70 252.65 147.32 285.00 115.01 C 326.67 156.66 368.34 198.33 409.99 240.00 C 385.01 265.01 360.00 289.99 335.01 315.00 C 368.33 348.34 401.68 381.66 435.00 415.00 C 385.01 448.35 335.00 481.67 285.00 514.99 C 243.33 473.33 201.66 431.67 160.00 389.99 C 168.26 332.16 176.53 274.32 184.78 216.48 C 184.90 214.48 186.76 213.35 187.98 211.99 Z" />
</g>
<g id="#242424ff">
<path fill="#242424" opacity="1.00" d=" M 903.08 274.04 C 907.53 271.01 913.34 270.49 918.52 271.63 C 922.05 272.45 925.95 274.30 927.00 278.10 C 937.29 311.38 947.43 344.70 957.67 377.99 C 958.57 380.15 958.12 382.75 956.39 384.36 C 952.86 387.74 947.70 389.46 942.86 388.70 C 940.73 388.41 938.68 387.02 938.14 384.86 C 935.90 377.78 934.10 370.55 931.91 363.45 C 919.71 363.50 907.51 363.46 895.32 363.48 C 893.21 370.61 891.34 377.83 889.12 384.93 C 888.53 387.26 886.17 388.57 883.92 388.78 C 879.39 389.29 874.61 387.86 871.20 384.83 C 869.31 383.20 868.60 380.43 869.58 378.11 C 879.38 346.10 889.23 314.10 899.01 282.07 C 899.94 279.23 900.49 275.91 903.08 274.04 M 913.49 298.10 C 908.96 314.47 904.23 330.79 899.65 347.15 C 908.92 347.16 918.19 347.16 927.47 347.16 C 922.80 330.81 918.33 314.40 913.49 298.10 Z" />
<path fill="#242424" opacity="1.00" d=" M 503.02 278.90 C 502.67 274.64 507.19 272.33 510.84 272.11 C 518.21 271.76 525.61 272.06 532.99 271.96 C 543.27 272.02 554.34 271.14 563.60 276.51 C 570.24 280.18 574.10 287.51 574.83 294.90 C 575.61 302.68 575.03 311.10 570.74 317.87 C 568.59 321.34 565.19 323.76 561.61 325.60 C 569.28 328.43 576.06 334.76 577.25 343.15 C 578.60 353.49 578.77 364.65 574.21 374.28 C 569.65 383.64 559.05 388.42 549.04 388.81 C 538.05 389.07 527.05 388.83 516.05 388.93 C 512.40 388.90 508.36 389.14 505.32 386.75 C 503.39 385.50 502.83 383.14 502.99 380.98 C 503.03 346.96 502.96 312.93 503.02 278.90 M 523.65 290.19 C 523.62 299.26 523.63 308.33 523.64 317.40 C 530.09 317.33 536.54 317.55 542.99 317.30 C 547.66 317.23 552.06 314.08 553.44 309.58 C 554.86 304.88 554.80 299.33 551.98 295.15 C 549.78 291.89 545.84 290.29 542.01 290.24 C 535.89 290.11 529.77 290.24 523.65 290.19 M 523.64 333.72 C 523.62 346.04 523.64 358.35 523.63 370.67 C 529.42 370.69 535.22 370.70 541.02 370.68 C 544.99 370.67 549.27 370.02 552.32 367.27 C 556.06 363.99 557.07 358.76 557.21 354.02 C 557.29 349.10 557.31 343.78 554.62 339.46 C 552.17 335.51 547.34 333.90 542.90 333.79 C 536.48 333.62 530.06 333.77 523.64 333.72 Z" />
<path fill="#242424" opacity="1.00" d=" M 598.45 272.52 C 602.63 271.61 607.31 271.83 611.04 274.11 C 613.05 275.33 613.31 277.85 613.25 279.99 C 613.22 304.01 613.24 328.03 613.24 352.06 C 613.25 356.92 613.77 362.17 616.92 366.11 C 619.78 369.81 624.58 371.35 629.11 371.55 C 634.34 371.84 640.16 370.96 643.96 367.04 C 647.54 363.32 648.38 357.93 648.43 352.97 C 648.48 328.29 648.41 303.60 648.45 278.92 C 648.29 276.69 649.45 274.44 651.56 273.57 C 656.37 271.38 662.37 271.40 666.99 274.08 C 669.06 275.30 669.32 277.88 669.25 280.06 C 669.20 304.68 669.28 329.30 669.21 353.91 C 669.12 362.33 667.39 371.24 661.84 377.84 C 655.58 385.22 645.90 388.81 636.47 389.61 C 625.73 390.50 614.20 389.13 605.20 382.79 C 600.05 379.31 596.33 373.97 594.52 368.05 C 591.98 360.30 592.49 352.05 592.44 344.02 C 592.48 322.05 592.37 300.09 592.50 278.13 C 592.42 274.87 595.67 273.11 598.45 272.52 Z" />
<path fill="#242424" opacity="1.00" d=" M 690.79 273.74 C 695.51 271.38 701.47 271.40 706.15 273.86 C 708.40 274.98 708.91 277.64 708.77 279.93 C 708.71 310.15 708.83 340.38 708.71 370.60 C 721.81 370.84 734.92 370.54 748.02 370.74 C 749.88 370.71 751.55 371.94 752.40 373.55 C 754.74 377.81 754.57 383.65 751.37 387.44 C 749.74 389.24 747.13 388.85 744.97 388.94 C 728.98 388.85 712.99 389.01 697.01 388.86 C 693.09 388.88 687.74 386.81 687.99 382.11 C 687.94 347.71 687.96 313.30 687.98 278.90 C 687.83 276.80 688.82 274.64 690.79 273.74 Z" />
<path fill="#242424" opacity="1.00" d=" M 768.40 274.52 C 771.98 271.39 777.20 271.63 781.56 272.63 C 786.47 273.77 789.23 278.41 791.62 282.44 C 798.34 294.55 804.95 306.72 811.65 318.84 C 817.82 307.57 824.02 296.31 830.20 285.04 C 832.91 280.40 835.51 274.73 841.00 272.89 C 845.47 271.63 850.92 271.23 854.77 274.30 C 857.40 276.33 858.08 279.83 858.03 282.98 C 858.02 316.01 858.08 349.04 858.01 382.07 C 858.15 384.19 856.82 386.16 854.96 387.08 C 850.19 389.57 843.98 389.53 839.43 386.56 C 837.58 385.35 837.10 383.04 837.23 380.98 C 837.25 358.49 837.23 336.01 837.25 313.52 C 831.29 324.16 825.28 334.76 819.34 345.41 C 818.36 347.04 817.41 348.83 815.74 349.85 C 812.12 352.05 806.74 350.98 804.78 347.06 C 798.49 335.53 792.44 323.87 786.21 312.30 C 786.16 335.52 786.24 358.74 786.17 381.95 C 786.34 384.15 784.99 386.21 783.02 387.13 C 778.24 389.59 772.01 389.51 767.50 386.49 C 765.72 385.27 765.28 383.03 765.39 381.02 C 765.41 348.32 765.39 315.63 765.40 282.93 C 765.38 279.91 765.97 276.58 768.40 274.52 Z" />
</g>
</svg>
