<?xml version="1.0" encoding="utf-8"?>
<!-- Generator: Adobe Illustrator 19.2.1, SVG Export Plug-In . SVG Version: 6.00 Build 0)  -->
<svg version="1.1" id="Layer_1" xmlns="http://www.w3.org/2000/svg" xmlns:xlink="http://www.w3.org/1999/xlink" x="0px" y="0px"
	 viewBox="0 0 600 135" style="enable-background:new 0 0 600 135;" xml:space="preserve">
<style type="text/css">
	.st0{fill:#4591CF;}
</style>
<g>
	<path class="st0" d="M98.7,25c1.7-8.3,3.3-16.6,5-25c42.5,0.1,85,0,127.5,0c-7.4,37.6-14.9,75.1-22.4,112.7
		c-21.8,7.3-43.7,14.5-65.5,21.8c-3.2,1.5-6.4-0.7-9.4-1.7c-17.4-6.7-34.8-13.4-52.2-20c1.5-10.2,3.9-20.2,5.8-30.4
		c8.4,0,16.8,0,25.2,0c-0.8,4.1-1.6,8.2-2.5,12.3c11.8,4.8,23.9,9.2,35.8,13.8c13.7-4.6,27.3-9.1,41-13.6c2-9.5,4-19,5.7-28.6
		c-34-0.1-68.1,0-102.2,0c1.7-8.4,3.4-16.8,5-25.1c34.1-0.1,68.2,0.1,102.3-0.1c1.1-5.4,2.1-10.7,3.2-16.1
		C166.9,25,132.8,25,98.7,25z"/>
	<g>
		<path class="st0" d="M286.5,109.2c-6.1,0-11-1.9-14.5-5.6c-3.5-3.7-5.3-8.9-5.3-15.5V41.6c0-6.3,1.8-11.4,5.3-15.2
			c3.5-3.9,8.3-5.8,14.5-5.8H302c6.1,0,10.9,1.9,14.4,5.8c3.4,3.9,5.2,9,5.2,15.2v5.9c0,1-0.3,2.2-0.9,3.4c-0.6,1.2-1.8,1.9-3.7,1.9
			h-1.5c-1.8,0-3-0.5-3.7-1.6c-0.7-1.1-1.1-2.3-1.1-3.6v-5.9c0-6.6-2.9-9.9-8.6-9.9h-15.6c-5.7,0-8.6,3.3-8.6,9.9v46.3
			c0,6.7,2.9,10.1,8.6,10.1H302c5.7,0,8.6-3.4,8.6-10.1V82c0-3.2,1.6-4.8,4.8-4.8h1.5c1.6,0,2.8,0.5,3.5,1.6
			c0.7,1.1,1.1,2.2,1.1,3.2v6.1c0,6.6-1.7,11.7-5.2,15.5c-3.4,3.7-8.2,5.6-14.4,5.6H286.5z"/>
		<path class="st0" d="M354.7,109.2c-6.1,0-11-1.9-14.5-5.6c-3.5-3.7-5.3-8.9-5.3-15.5v-5c0-1.5,0.4-2.7,1.2-3.6
			c0.8-0.9,1.9-1.4,3.4-1.4h2c1.6,0,2.8,0.5,3.5,1.6c0.7,1.1,1.1,2.2,1.1,3.4v4.8c0,6.7,2.9,10.1,8.6,10.1H369
			c5.7,0,8.6-3.4,8.6-10.1v-6.1c0-5-4-8.5-12.1-10.5c-2.9-0.6-6.1-1.3-9.7-2.2c-3.5-0.9-6.8-2.1-9.9-3.7c-3.1-1.6-5.7-3.7-7.8-6.3
			c-2.1-2.6-3.2-5.9-3.2-10v-7.5c0-6.3,1.8-11.4,5.3-15.2c3.5-3.9,8.3-5.8,14.5-5.8H369c6.1,0,10.9,1.9,14.4,5.8
			c3.4,3.9,5.2,9,5.2,15.2v3.5c0,1.2-0.4,2.3-1.1,3.5c-0.7,1.2-1.9,1.8-3.5,1.8h-1.5c-3.2,0-4.8-1.8-4.8-5.3v-3.5
			c0-6.6-2.9-9.9-8.6-9.9h-14.3c-5.7,0-8.6,3.3-8.6,9.9v7.2c0,1.6,0.8,3.3,2.4,5c1.6,1.8,4.8,3.1,9.4,4.2c3.4,0.7,6.7,1.5,9.9,2.3
			c3.2,0.8,6.4,2,9.7,3.6c3.1,1.6,5.7,3.8,7.8,6.6c2.1,2.8,3.2,6.4,3.2,10.8v6.8c0,6.6-1.7,11.7-5.2,15.5c-3.4,3.7-8.2,5.6-14.4,5.6
			H354.7z"/>
		<path class="st0" d="M421.2,109.2c-6.1,0-11-1.9-14.5-5.6c-3.5-3.7-5.3-8.9-5.3-15.5v-5c0-1.5,0.4-2.7,1.2-3.6
			c0.8-0.9,1.9-1.4,3.4-1.4h2c1.6,0,2.8,0.5,3.5,1.6c0.7,1.1,1.1,2.2,1.1,3.4v4.8c0,6.7,2.9,10.1,8.6,10.1h14.3
			c5.7,0,8.6-3.4,8.6-10.1v-6.1c0-5-4-8.5-12.1-10.5c-2.9-0.6-6.1-1.3-9.7-2.2c-3.5-0.9-6.8-2.1-9.9-3.7c-3.1-1.6-5.7-3.7-7.8-6.3
			c-2.1-2.6-3.2-5.9-3.2-10v-7.5c0-6.3,1.8-11.4,5.3-15.2c3.5-3.9,8.3-5.8,14.5-5.8h14.3c6.1,0,10.9,1.9,14.4,5.8
			c3.4,3.9,5.2,9,5.2,15.2v3.5c0,1.2-0.4,2.3-1.1,3.5c-0.7,1.2-1.9,1.8-3.5,1.8h-1.5c-3.2,0-4.8-1.8-4.8-5.3v-3.5
			c0-6.6-2.9-9.9-8.6-9.9h-14.3c-5.7,0-8.6,3.3-8.6,9.9v7.2c0,1.6,0.8,3.3,2.4,5c1.6,1.8,4.8,3.1,9.4,4.2c3.4,0.7,6.7,1.5,9.9,2.3
			c3.2,0.8,6.4,2,9.7,3.6c3.1,1.6,5.7,3.8,7.8,6.6c2.1,2.8,3.2,6.4,3.2,10.8v6.8c0,6.6-1.7,11.7-5.2,15.5c-3.4,3.7-8.2,5.6-14.4,5.6
			H421.2z"/>
		<path class="st0" d="M489,109.2c-5.9,0-10.5-1.8-14-5.3c-3.5-3.5-5.3-8.6-5.3-15.1v-6.4c0-1,0.3-2,1-3.1c0.7-1,1.7-1.5,3.2-1.5h2
			c1.5,0,2.5,0.5,3.2,1.5c0.7,1,1,2.1,1,3.1v6.4c0,6.6,3,9.9,9,9.9h10.3c5.8,0,8.8-3.3,8.8-9.9v-9c0-6.6-2.9-9.9-8.8-9.9h-7.5
			c-1.2,0-2.2-0.4-3.1-1.2c-0.9-0.8-1.3-1.9-1.3-3.4v-1.5c0-1.5,0.4-2.6,1.3-3.3c0.9-0.7,1.9-1.1,3.1-1.1h7.5
			c5.8,0,8.8-3.4,8.8-10.1v-8.3c0-6.6-2.9-9.9-8.8-9.9H489c-6,0-9,3.3-9,9.9v4.8c0,1.2-0.3,2.2-1,3.2c-0.7,1-1.7,1.4-3.2,1.4h-2
			c-1.5,0-2.5-0.5-3.2-1.4c-0.7-0.9-1-2-1-3.2v-4.8c0-6.6,1.8-11.6,5.3-15.1c3.5-3.5,8.2-5.3,14-5.3h10.3c5.7,0,10.3,1.8,13.8,5.3
			c3.5,3.5,5.3,8.6,5.3,15.1v8.3c0,6.9-2,11.9-5.9,15.1c3.9,3.4,5.9,8.4,5.9,15.1v9.2c0,6.6-1.8,11.6-5.3,15.1
			c-3.5,3.5-8.1,5.3-13.8,5.3H489z"/>
	</g>
</g>
</svg>
