<?xml version="1.0" encoding="utf-8"?>
<!-- Generator: Adobe Illustrator 19.2.1, SVG Export Plug-In . SVG Version: 6.00 Build 0)  -->
<svg version="1.1" id="Layer_1" xmlns="http://www.w3.org/2000/svg" xmlns:xlink="http://www.w3.org/1999/xlink" x="0px" y="0px"
	 viewBox="0 0 600 135" style="enable-background:new 0 0 600 135;" xml:space="preserve">
<style type="text/css">
	.st0{fill:#0B2F21;}
</style>
<g>
	<path class="st0" d="M151.8,0h21.3c0,32.6,0,65.2,0,97.9c-9.5,1.8-19.2,3-28.9,2.9c-8.3-0.2-16.8-1.4-24-5.7
		c-5.4-3.1-9.7-8.2-11.8-14.1c-1.4-3.7-2.1-7.7-2.3-11.7v-5.1c0.4-7.9,3.1-15.9,8.4-21.8c5.5-6.2,13.5-9.8,21.7-10.8
		c5.2-0.6,10.5-0.7,15.5,0.7C151.8,21.4,151.8,10.7,151.8,0 M140.2,48.6c-4,0.8-7.6,3.2-9.7,6.7c-2.6,4.5-3,10-2.3,15.1
		c0.6,4.5,3,8.9,7,11.1c5.1,2.8,11.1,2.4,16.6,1.6c0-11.3,0-22.6,0-33.8C148.1,48,144,47.9,140.2,48.6z"/>
	<path class="st0" d="M185.6,0h21.3c0.1,7.3,0,14.5,0,21.8c-7.1,0-14.2,0-21.3,0C185.6,14.5,185.6,7.3,185.6,0z"/>
	<path class="st0" d="M219.6,37.4c10.7-5.1,22.8-7.3,34.6-5.9c5,0.7,10.4,2.3,13.7,6.5c3.2,3.9,3.2,9.3,3.4,14.1
		c0,15.6,0,31.1,0,46.7c-8.4,1.1-16.8,1.9-25.2,2.2c-6.8,0.2-13.9,0.3-20.4-2.3c-3.9-1.5-7.2-4.5-8.8-8.3c-1.6-3.7-1.8-7.8-1.5-11.8
		c0.3-3.8,1.7-7.6,4.2-10.5c3-3.4,7.1-5.6,11.3-7c6.8-2.3,13.9-3.2,21-3.9c-0.2-2.3,0.3-4.7-0.4-6.9c-0.7-2.1-3.1-2.7-5.1-2.8
		c-9.3-0.4-18.5,2.2-26.8,6.4C219.6,48.4,219.6,42.9,219.6,37.4 M239.5,73.6c-2.1,0.8-4.2,2.1-4.9,4.3c-0.6,2.1-0.5,4.6,1,6.3
		c1.3,1.3,3.2,1.7,4.9,1.9c4.1,0.2,8.2-0.2,12.2-0.9c0-4.7,0-9.4,0-14.1C248.3,71.6,243.8,72,239.5,73.6z"/>
	<path class="st0" d="M306.1,31.4c7.6-0.5,15.3-0.8,22.7,1.4c5,1.5,9.7,4.5,12.3,9.1c2.6,4.4,2.8,9.6,3,14.5c0,14.5,0,28.9,0,43.4
		c-7.1,0-14.2,0-21.2,0c0-13.4,0-26.8,0-40.2c-0.1-2.9-0.1-6.1-2-8.6c-1.8-2.4-5.1-3-7.9-3c-3.4-0.1-6.8,0.5-10.1,1.5
		c0,16.7,0,33.5,0,50.2c-7.1,0-14.2,0-21.3,0c0-21.3,0-42.7,0-64C289.6,33.8,297.8,32.1,306.1,31.4z"/>
	<path class="st0" d="M441,35.1c4.5-2.5,9.5-3.8,14.6-4.2c6.4-0.5,12.9,0.1,18.9,2.5c5.8,2.3,10.9,6.4,14.1,11.8
		c3.3,5.3,4.8,11.5,5.1,17.7v5.4c-0.3,4.6-1.1,9.2-2.8,13.4c-2,5-5.2,9.5-9.4,12.8c-5.2,4.2-11.8,6.3-18.4,6.9
		c-5.2,0.4-10.5,0.1-15.6-1.2c-4.8-1.3-9.4-3.7-13-7.1c-3.5-3.2-6-7.3-7.6-11.7c-2.2-6.1-2.7-12.7-2.2-19.1c0.5-6.3,2.4-12.6,6-17.9
		C433.3,40.6,436.9,37.4,441,35.1 M456.7,48.2c-2.7,0.5-5.2,2.1-6.9,4.4c-2.4,3.2-3.2,7.2-3.5,11.1c-0.2,4.6,0,9.5,2,13.8
		c1.3,2.9,3.6,5.4,6.6,6.4c4,1.4,8.8,0.9,12-2c2.8-2.4,4.1-6,4.8-9.6c0.8-4.5,0.7-9.1-0.3-13.5c-0.8-3.4-2.4-6.8-5.2-8.8
		C463.4,48,459.9,47.5,456.7,48.2z"/>
	<path class="st0" d="M387.7,31.9c13.1-1.6,26.3-0.3,39.1,2.3c-2.4,5.1-4.9,10.2-7.3,15.3c-1.5-0.4-3.1-0.6-4.7-0.5
		c0,5.5,0.4,11,0.3,16.5c0.1,6.6,0.4,13.1,0.3,19.7c0,6.6-0.1,13.2-1,19.8c-0.7,5-2.1,10-4.8,14.3c-2.9,4.7-7.2,8.6-12.2,11.1
		c-5.9,3-12.5,4.2-19,4.5h-6.6c-6.7-0.3-13.4-1.6-19.6-4.1c0-6.5,0-13.1,0-19.6c7.9,4.2,17,6.2,25.9,5.6c4.6-0.3,9.5-1.5,12.6-5.1
		c3.4-3.8,4-9.2,4-14.1c-2.8,1.3-5.9,2.3-9,2.6c-7,0.7-14.3,0-20.5-3.4c-4.9-2.6-8.9-6.8-11.3-11.7c-3.1-6.3-3.8-13.5-3.3-20.4
		c0.5-5.5,2.1-11,5.1-15.7c3.1-4.9,7.6-8.8,12.7-11.5C374.5,34.4,381.1,32.7,387.7,31.9 M380.7,50.9c-3.4,1.7-6.1,4.9-7.3,8.6
		c-1.4,4.4-1.4,9.3-0.3,13.8c1,3.7,3.4,7.1,7,8.7c4.7,2.1,10,1.5,14.8,0c0-11.2-0.4-22.5-0.4-33.7C389.7,48.1,384.8,48.7,380.7,50.9
		z"/>
	<path class="st0" d="M185.6,32.6c7.1,0,14.2,0,21.3,0c0,15.9,0,31.9,0,47.8c-0.2,8.4,0,16.9-1.9,25.1c-1.8,7.1-5.6,14-11.6,18.4
		c-2.8,2.1-5.8,3.9-8.9,5.3c-6.6-3.1-13.2-6.2-19.7-9.4c4.6-2.2,9.3-4.7,12.9-8.4c3.9-4.2,6-9.7,6.9-15.3c0.9-6.3,1-12.6,1.1-19
		C185.6,62.3,185.6,47.5,185.6,32.6z"/>
</g>
</svg>
