<?xml version="1.0" encoding="utf-8"?>
<!-- Generator: Adobe Illustrator 19.2.1, SVG Export Plug-In . SVG Version: 6.00 Build 0)  -->
<svg version="1.1" id="Layer_1" xmlns="http://www.w3.org/2000/svg" xmlns:xlink="http://www.w3.org/1999/xlink" x="0px" y="0px"
	 viewBox="0 0 600 135" style="enable-background:new 0 0 600 135;" xml:space="preserve">
<style type="text/css">
	.st0{fill:#2D434E;}
</style>
<g>
	<path class="st0" d="M166.4,0c-37.7,0-68.3,30.6-68.3,68.3c0,32.7,23,60,53.6,66.7v-7c0,0,0,0,0.1,0v-6.2
		c0.1-5.2,0.2-11.9,0.2-12.8c-0.1-0.1-13,3.7-18.6-5.4c-0.9-1.5-2.3-6.7-6.2-9.6c-0.2-0.1-3-1.5-3.3-2.9c0-0.2,0.2-0.6,0.4-0.7
		c0.3-0.1,5-2,10.2,4.5c1.6,2.2,5.1,10.5,17.6,5.4c0.4-1.3,1-4.2,5-5c-18.6-2.2-30.2-11-33.1-27.5c-1.8-11.2,4.8-16.6,9.6-20.9
		c-0.7-0.9-3.1-8.6,0.6-16.8c4-0.8,11.3,2,17.8,6.6c9.1-3.2,24.1-2.4,30.2,0c2.9-2.3,13.3-7.8,17.7-6.6c0.4,3.2,0.9,10.6,0.6,16.9
		c5.8,5.8,9.1,13,8.5,21.2C208.4,82.5,199,93.4,179.3,95c5,3.3,5.2,8.6,5.4,10.6c0,2.7,0.4,9.3,0.9,14.6v13.6c0,0-0.1,0-0.1,0v0
		c28.4-8.3,49.1-34.5,49.1-65.6C234.7,30.6,204.1,0,166.4,0z"/>
	<g>
		<path class="st0" d="M301,62.7c-7.6-0.3-15.1-0.1-22.7,0c-0.1,4-0.1,8.1,0.1,12.2c3,0,6,0,9.1,0c0,4.3,0,8.6,0,12.8
			c-5.5,0.6-12.3,1.5-16.5-3.1c-4.9-5.4-5-13.3-4.8-20.1c0.3-6.3,2.3-14,8.9-16.5c6.8-2.5,14.3-1.1,21.2,0.6
			c0.9-3.8,1.8-7.7,2.7-11.5c-6.9-3.7-15.1-3.4-22.7-3.3c-8.8,0.4-17.2,5.7-20.6,13.9c-4.3,10.3-4.5,21.9-2.4,32.7
			c1.7,8.7,7.9,16.7,16.7,19.1c10.3,2.8,21.9,2.1,31.4-3.2c0.2-9.7,0-19.3,0.1-29C301.3,65.9,301.5,64.2,301,62.7z"/>
		<path class="st0" d="M501.7,72.4c-0.4-5.9-2.5-12.5-8.1-15.4c-6.2-3.2-13.7-2-19.7,1c0-7.3,0.1-14.6-0.1-21.8c-4.5,0-9,0-13.6,0
			c-0.3,21.3-0.1,42.5-0.1,63.8c3.3,0.1,6.7,0.1,10,0c0.1-0.8,0.4-2.4,0.6-3.2c5.6,4.2,12.9,5.2,19.6,3.9c4.4-1,7.9-4.5,9.3-8.7
			C502,85.7,502.1,78.9,501.7,72.4z M486.1,88.4c-3.6,2.9-8.6,1.4-12.4-0.3c0.1-6.6,0-13.2,0-19.8c3.5-1.4,7.7-3.1,11.2-0.8
			c3,2.4,3.1,6.6,3.3,10C488.1,81.1,488.3,85.2,486.1,88.4z"/>
		<path class="st0" d="M394.3,36.1c-0.2,7.9,0,15.9-0.1,23.8c-6.2,0-12.4,0-18.6,0c0-8,0.2-15.9-0.1-23.9c-4.6,0-9.1-0.1-13.7,0
			c-0.1,21.3,0,42.5,0,63.7c4.6,0.2,9.2,0.1,13.8,0.1c0.2-9.1,0-18.3,0.1-27.4c6.2,0.1,12.4,0,18.5,0.1c0.2,9.1-0.3,18.2,0.1,27.3
			c4.5,0,9.1,0.1,13.6,0c0.1-21.3,0.1-42.6,0-63.8C403.4,36.1,398.8,36.1,394.3,36.1z"/>
		<path class="st0" d="M311.6,38.1c-4.9,1.8-6.5,9-2.5,12.5c3.7,4.3,11.5,2.3,12.8-3.2C324,41.6,317.2,35.5,311.6,38.1z"/>
		<path class="st0" d="M347.7,88.9c-0.5-1.4-1.2-2.9-1.1-4.4c-0.1-5.5,0-11.1,0-16.6c3.3,0,6.6,0,9.9-0.1c0-3.8,0-7.7,0-11.5
			c-3.3,0-6.6,0-9.9,0c0-4.1,0-8.2,0-12.3c-4.5,0-9.1,0-13.6,0c0,4.3,0,8.5,0,12.8c-2.4,0.5-4.7,1.1-7.1,1.6c-0.2,3.1-0.1,6.3,0,9.4
			c2.4,0,4.8,0.1,7.2,0.1c0,6.5-0.1,13,0,19.5c0.1,4.4,1.8,9.1,5.7,11.4c5.4,3.1,12.1,2.6,17.9,1.1c0-3.4,0.1-6.7,0-10.1
			C353.6,90,350.5,90,347.7,88.9z"/>
		<path class="st0" d="M307.7,56.3c-0.5,14.5-0.3,29.1-0.1,43.6c4.6,0.2,9.1,0.3,13.7-0.1c0.1-11.8,0-23.5,0-35.3
			c0-2.8,0.3-5.6-0.6-8.3C316.4,56.4,312,56.3,307.7,56.3z"/>
		<path class="st0" d="M440.3,56.6c-0.1,10.4-0.1,20.8,0,31.2c-3.1,1.6-6.7,2.9-10.1,1.7c-2-0.8-2.6-3.1-2.6-5.1
			c-0.1-9.3,0.1-18.6-0.1-27.9c-4.6,0-9.2-0.1-13.8-0.1c-0.3,8.6,0,17.3-0.1,26c0,4.2-0.2,8.8,2,12.6c1.5,2.8,4.4,4.7,7.5,5.5
			c7.2,1.6,14.8,0.4,21.1-3.5c0.1,0.7,0.3,2.2,0.4,3c3.1,0,6.2,0,9.3,0c0.1-14.4,0.1-28.9,0.1-43.3
			C449.4,56.3,444.9,56.3,440.3,56.6z"/>
	</g>
</g>
</svg>
