<?xml version="1.0" encoding="utf-8"?>
<!-- Generator: Adobe Illustrator 19.2.1, SVG Export Plug-In . SVG Version: 6.00 Build 0)  -->
<svg version="1.1" id="Layer_1" xmlns="http://www.w3.org/2000/svg" xmlns:xlink="http://www.w3.org/1999/xlink" x="0px" y="0px"
	 viewBox="0 0 600 135" style="enable-background:new 0 0 600 135;" xml:space="preserve">
<style type="text/css">
	.st0{fill:#D99666;}
	.st1{fill:#F3B45B;}
	.st2{fill:#FFFFFF;}
	.st3{fill:#E5E5E5;}
</style>
<g>
	<g>
		<path id="XMLID_5_" class="st0" d="M66.6,0h126.6l-12.7,122.3L134.1,135h-8.4l-46.4-12.7L66.6,0z"/>
		<path id="XMLID_4_" class="st1" d="M129.9,12.7h46.4l-8.4,97l-38,12.7C129.9,122.3,129.9,12.7,129.9,12.7z"/>
		<polygon id="XMLID_3_" class="st2" points="163.7,37.9 165,25.3 91.8,25.3 93.2,37.9 94.6,54.9 94.6,54.9 95.9,67.5 145,67.5 
			143.3,87.6 129.9,91.8 129.9,91.7 112,87 110.9,75.9 96.1,75.9 98.1,96.2 98.1,97.1 129.9,105.5 156.5,97.1 156.9,97.1 
			156.9,96.9 157,96.9 157,96.3 159.4,67.5 159.4,67.5 160.7,54.9 110.1,54.9 108.7,37.9 		"/>
		<g>
			<polygon id="XMLID_2_" class="st3" points="129.9,25.3 91.8,25.3 93.2,37.9 94.6,54.9 94.6,54.9 95.9,67.5 129.9,67.5 
				129.9,54.9 110.1,54.9 108.7,37.9 129.9,37.9 			"/>
			<polygon id="XMLID_1_" class="st3" points="129.9,91.7 112,87 110.9,75.9 96.1,75.9 98.1,96.2 98.1,97.1 129.9,105.5 129.9,91.8 
							"/>
		</g>
	</g>
	<g>
		<path class="st0" d="M286.7,107.5c-1.3,0-2.4-0.4-3.2-1.3c-0.8-0.9-1.2-1.9-1.2-3.1V71.9h-28.1v31.3c0,0.9-0.4,1.9-1.1,2.9
			c-0.7,1-1.8,1.5-3.3,1.5h-1.6c-1.5,0-2.5-0.4-3.3-1.3c-0.7-0.9-1.1-1.9-1.1-3.1V32.1c0-1.2,0.4-2.2,1.1-3.2
			c0.7-0.9,1.8-1.4,3.3-1.4h1.6c1.7,0,2.9,0.5,3.5,1.6c0.6,1.1,0.9,2,0.9,3v29.7h28.1V32.1c0-1.2,0.3-2.2,1-3.2
			c0.7-0.9,1.8-1.4,3.4-1.4h1.4c1.7,0,2.8,0.5,3.4,1.6c0.5,1.1,0.8,2,0.8,3v71.1c0,0.9-0.3,1.9-1,2.9c-0.7,1-1.7,1.5-3.2,1.5H286.7z
			"/>
		<path class="st0" d="M331.8,37.6v65.5c0,0.9-0.4,1.9-1.1,2.9c-0.7,1-1.8,1.5-3.3,1.5h-1.2c-1.5,0-2.5-0.5-3.3-1.5
			c-0.7-1-1.1-1.9-1.1-2.9V37.6h-14.1c-0.8,0-1.7-0.3-2.8-1c-1.1-0.7-1.6-1.8-1.6-3.4v-1.4c0-1.5,0.5-2.5,1.4-3.3
			c0.9-0.7,1.9-1.1,3-1.1h38c1.5,0,2.5,0.5,3.2,1.4c0.7,0.9,1,1.9,1,3v1.4c0,1.2-0.4,2.2-1.1,3.1c-0.7,0.9-1.8,1.3-3.1,1.3H331.8z"
			/>
		<path class="st0" d="M417.4,107.5c-2.9,0-4.4-1.5-4.4-4.4V53l-15.8,35.6c-1.1,2-2.6,3-4.8,3h-1.8c-2.2,0-3.8-1-4.6-3l-16-36v50.5
			c0,0.9-0.3,1.9-1,2.9c-0.7,1-1.7,1.5-3.2,1.5h-1.6c-3,0-4.6-1.5-4.6-4.4V32.1c0-1.2,0.4-2.2,1.1-3.2c0.7-0.9,1.9-1.4,3.5-1.4h3
			c2.1,0,3.4,0.9,4,2.6l20.4,45.7l20-45.7c0.8-1.7,2.2-2.6,4.2-2.6h3.2c1.7,0,2.8,0.5,3.4,1.6c0.5,1.1,0.8,2,0.8,3v71.1
			c0,0.9-0.3,1.9-1,2.9c-0.7,1-1.7,1.5-3.2,1.5H417.4z"/>
		<path class="st0" d="M442.1,107.5c-1.3,0-2.4-0.4-3.2-1.3c-0.8-0.9-1.2-1.9-1.2-3.1V32.1c0-1.1,0.4-2.1,1.1-3.1
			c0.7-1,1.8-1.5,3.3-1.5h1.4c1.7,0,2.9,0.6,3.5,1.7c0.6,1.1,0.9,2.1,0.9,2.9v65.1h27.3c1.3,0,2.3,0.5,3,1.5c0.7,1,1,1.9,1,2.9v1.6
			c0,1.2-0.4,2.2-1.1,3.1c-0.7,0.9-1.7,1.3-2.9,1.3H442.1z"/>
		<path class="st0" d="M507.7,107.5c-5.5,0-9.8-1.7-12.9-5.1c-3-3.4-4.6-8-4.6-13.7v-4.6c0-1.1,0.3-2,0.9-2.9
			c0.6-0.9,1.6-1.3,2.9-1.3h1.6c1.3,0,2.3,0.4,3,1.3c0.7,0.9,1,1.8,1,2.9v4.4c0,6.3,2.7,9.5,8.1,9.5h8.3c5.4,0,8.1-3.2,8.1-9.5V74
			c0-3.3-0.7-5.6-2-7c-1.3-1.4-3.4-2.1-6.1-2.1h-10.3c-1.6,0-2.7,0.2-3.4,0.6c-0.7,0.4-1.1,0.9-1.4,1.4c-0.7,0.7-1.1,1.5-1.4,2.4
			c-0.4,0.4-0.9,0.8-1.4,1.2c-0.5,0.4-1.3,0.6-2.2,0.6h-2c-1.3,0-2.3-0.5-2.9-1.4c-0.6-0.9-0.9-1.8-0.9-2.8V31.7
			c0-0.9,0.3-1.8,0.9-2.8c0.6-0.9,1.6-1.4,2.9-1.4h34.3c2.6,0,4,1.4,4,4.2v1.2c0,2.8-1.3,4.2-4,4.2h-28.7v19.6
			c1.3-0.8,3.4-1.2,6.1-1.2H516c5.3,0,9.5,1.6,12.7,4.8c3.2,3.2,4.8,7.8,4.8,13.9v14.7c0,5.7-1.6,10.2-4.8,13.7
			c-3.2,3.4-7.4,5.1-12.7,5.1H507.7z"/>
	</g>
</g>
</svg>
