<?xml version="1.0" encoding="utf-8"?>
<!-- Generator: Adobe Illustrator 19.2.1, SVG Export Plug-In . SVG Version: 6.00 Build 0)  -->
<svg version="1.1" id="Layer_1" xmlns="http://www.w3.org/2000/svg" xmlns:xlink="http://www.w3.org/1999/xlink" x="0px" y="0px"
	 viewBox="0 0 600 135" style="enable-background:new 0 0 600 135;" xml:space="preserve">
<style type="text/css">
	.st0{fill:#9DD5DF;}
	.st1{fill:#404B44;}
	.st2{fill:#F6E99C;}
</style>
<g>
	<path class="st0" d="M137.6,6.9v120.8H16.8V6.9H137.6 M144.4,0.3H10v134.4h134.4V0.3z M108.4,69.2l-3.1-1.3
		c-5.5-2.4-8.1-3.7-8.1-7.9c0-3.1,2.4-5.5,6.3-5.5c3.7,0,5.9,1.5,8.3,5.5l10-6.5c-4.1-7.4-10-10.3-18.1-10.3c-11.6,0-19,7.4-19,16.8
		c0,10.5,6.3,15.5,15.5,19.6l3.1,1.3c5.7,2.4,9.4,4.1,9.4,8.7c0,3.7-3.3,6.5-8.7,6.5c-6.5,0-10-3.3-12.6-8.1l-10.5,5.9
		c3.7,7.4,11.6,13.1,23.6,13.1c12.2,0,21.4-6.5,21.4-17.9C125.6,78.8,119.5,74,108.4,69.2L108.4,69.2z M73.9,88.2V44.2H60.9V88
		c0,6.5-2.6,8.1-7,8.1s-6.3-3.1-8.3-6.5l-10.7,6.5c3.1,6.5,9.2,11.8,19.4,11.8C65.9,107.4,73.9,101.5,73.9,88.2z"/>
	<circle class="st1" cx="13.3" cy="94.1" r="13.3"/>
	<path class="st0" d="M164,84.5l5.7-3.7c1.7,3.1,3.5,5,7.2,5c3.7,0,6.5-1.7,6.5-7.4V45h7.4v33.8c0,9.4-5.5,13.7-13.3,13.7
		C170.3,92.4,166.4,88.9,164,84.5z M211.3,67.9c-3.7,0-5.9,1.7-7.6,3.5l-3.9-3.9c2.4-3.1,5.9-5,12-5c7,0,12.2,3.7,12.2,12.4v16.8h-7
		l0.2-4.1c-2.2,3.1-4.8,4.8-9.4,4.8c-5.7,0-10.5-2.6-10.5-9.4c0-5.9,4.8-8.7,11.3-8.7h8.1C217.2,69.9,215.3,67.9,211.3,67.9z
		 M209.6,79.3c-3.1,0-5,1.1-5,3.7s2,3.7,5.5,3.7c3.9,0,7-2,7-5v-2.4H209.6z M228.4,62.9h7.9l5.7,12.6c1.1,2.4,2,6.3,2,6.3
		s0.9-3.7,1.7-6.3l5.7-12.6h7.2l-14.6,29.4H243L228.4,62.9L228.4,62.9z M274.6,67.9c-3.7,0-5.9,1.7-7.6,3.5l-3.9-3.9
		c2.4-3.1,5.9-5,12-5c7,0,12.2,3.7,12.2,12.4v16.8h-7l0.2-4.1c-2,3.1-4.6,4.8-9.2,4.8c-5.7,0-10.5-2.6-10.5-9.4
		c0-5.9,4.8-8.7,11.3-8.7h8.1C280.5,69.9,278.5,67.9,274.6,67.9L274.6,67.9z M272.8,79.3c-3.1,0-5,1.1-5,3.7s2,3.7,5.5,3.7
		c3.9,0,7-2,7-5v-2.4H272.8z M292.9,82.8l5.9-3.3c2.2,3.7,5,6.5,10.7,6.5c4.6,0,8.1-2.4,8.1-6.5s-2.6-5.7-8.1-8.1l-3.1-1.3
		c-7-3.1-10.9-6.5-10.9-13.7c0-7,5.2-12,13.1-12c6.3,0,10.5,2.4,13.3,7.4l-5.7,3.5c-1.7-3.1-3.7-4.4-7.6-4.4c-3.7,0-5.9,2.4-5.9,5.2
		c0,3.5,2,5,6.8,7.4l3.1,1.3c8.1,3.5,12.2,7.4,12.2,14.8c0,8.3-6.5,12.9-15.3,12.9S295.5,88,292.9,82.8z M331.3,77.3
		c0-8.7,6.5-15,15.5-15c5.2,0,8.9,2,11.8,5.5l-5,3.9c-1.3-2-3.7-3.3-6.8-3.3c-5,0-8.3,3.7-8.3,8.9s3.1,8.9,8.3,8.9
		c3.5,0,5.5-1.5,7.2-3.1l4.4,4.1c-2.8,3.1-6.3,5-12,5C337.8,92.4,331.3,86.3,331.3,77.3z M365.1,62.9h7v5.2c2-4.4,5-5.9,8.5-5.9
		c2,0,3.5,0.4,4.6,1.1l-2.4,6.3c-1.1-0.4-2.2-1.1-3.7-1.1c-4.1,0-7,2.4-7,8.9v14.4h-7L365.1,62.9L365.1,62.9z M390,51.8
		c0-2.6,2.2-4.4,4.4-4.4c2.4,0,4.6,1.7,4.6,4.4s-2.2,4.4-4.6,4.4S390,54.4,390,51.8z M391.1,62.9h7.2v28.8h-7.2
		C391.1,91.7,391.1,62.9,391.1,62.9z M407,62.9h7.2l-0.2,5.5c1.7-3.5,5.2-5.9,10.3-5.9c7.4,0,13.3,6.3,13.3,14.8s-5.9,15-13.5,15
		c-4.8,0-8.3-2.4-10-5.5v19.6h-7.2V62.9C406.8,62.9,407,62.9,407,62.9z M430.3,77.3c0-5-3.1-8.9-8.3-8.9s-8.5,3.5-8.5,8.9
		c0,5.5,3.3,9.2,8.5,9.2C427.3,86.3,430.3,82.8,430.3,77.3z M446.2,82.1V68.8h-4.4v-5.9h4.4v-15h7v15h7.9v5.7h-7.9v13.3
		c0,3.3,1.1,4.1,2.8,4.1c1.7,0,2.6-0.9,3.5-1.3l3.3,4.6c-1.5,1.3-3.7,2.6-7.4,2.6C450.4,92.4,446.2,89.7,446.2,82.1z"/>
	<path class="st2" d="M470,87.6c0-2.6,2.2-4.6,4.6-4.6s4.6,2,4.6,4.6s-2.2,4.6-4.6,4.6C472.4,92.4,470,90.4,470,87.6z M484.4,77.3
		c0-8.7,6.5-15,15.5-15c5.2,0,8.9,2,11.8,5.5l-5,3.9c-1.3-2-3.7-3.3-6.8-3.3c-5,0-8.3,3.7-8.3,8.9s3.1,8.9,8.3,8.9
		c3.5,0,5.5-1.5,7.2-3.1l4.6,4.1c-2.8,3.1-6.3,5-12,5C491.2,92.4,484.4,86.3,484.4,77.3z M516.5,77.3c0-8.7,7-15,15.5-15
		c8.9,0,15.5,6.5,15.5,15s-6.8,15-15.5,15C523.4,92.4,516.5,86,516.5,77.3z M540.7,77.3c0-5.2-3.1-9.2-8.5-9.2c-5,0-8.5,3.7-8.5,9.2
		s3.3,9.2,8.5,9.2S540.7,82.5,540.7,77.3z M555.1,62.9h7l-0.2,5c2-3.7,4.8-5.5,8.7-5.5c4.1,0,7,2,8.5,5.5c2.4-3.5,5.7-5.5,10-5.5
		c7,0,10.9,4.4,10.9,12v17.4h-7v-17c0-3.9-1.5-6.3-5.2-6.3c-3.9,0-6.5,2.4-6.5,7.4v15.7h-7.4V74.9c0-3.9-1.3-6.3-5.2-6.3
		c-4.1,0-6.5,2.4-6.5,7.4v15.7h-7C555.1,91.7,555.1,62.9,555.1,62.9z"/>
</g>
</svg>
